# xmcd
#
# Track frame offsets: 
#        150
#        17890
#        33665
#        53277
#        68950
#        88292
#        102470
#        121240
#        140500
#        166730
#
# Disc length: 2488 seconds
#
# Revision: 0
# Processed by: cddbd v1.5.2PL0 Copyright (c) Steve Scherf et al.
# Submitted via: ExactAudioCopy v1.0b3
#
DISCID=8409b60a
DTITLE=Melissa Manchester - Better Days and Happy Endings
DYEAR=1976
DGENRE=Blues
TTITLE0=Happy Endings
TTITLE1=You Can Make It All Come True
TTITLE2=Better Days
TTITLE3=My Sweet Thing
TTITLE4=Come In From The Rain
TTITLE5=Rescue Me
TTITLE6=Just You And I
TTITLE7=Stand Up Woman
TTITLE8=Good News
TTITLE9=Sing, Sing, Sing
EXTD=
EXTT0=
EXTT1=
EXTT2=
EXTT3=
EXTT4=
EXTT5=
EXTT6=
EXTT7=
EXTT8=
EXTT9=
PLAYORDER=
